<?xml version="1.0" encoding="UTF-8" standalone="no"?>
<svg
	viewBox="0 0 145 35"
	version="1.1"
	id="svg2"
	xmlns="http://www.w3.org/2000/svg"
	xmlns:svg="http://www.w3.org/2000/svg">
	<defs
		id="defs2">
		<clipPath
			clipPathUnits="userSpaceOnUse"
			id="clipPath7">
			<path
				d="m 158.76304,122.11344 -28.1067,40.32527 27.77701,39.39109 h -22.17216 l -14.83638,-24.67782 q -1.40122,-2.25759 -3.29698,-5.76075 h -0.3297 q -0.3297,0.7006 -3.46183,5.76075 L 99.25265,201.8298 H 77.16291 l 28.68368,-39.0797 -27.20004,-40.63666 h 22.25458 l 14.58911,25.92339 q 1.64848,2.88038 3.21455,5.91645 h 0.2473 l 18.87518,-31.83984 z"
				id="path7"
				style="font-weight:700;font-size:16.4052px;font-family:'Segoe UI';-inkscape-font-specification:'Segoe UI Semi-Bold';text-align:center;text-anchor:middle;display:none;fill:#ffffff;fill-opacity:1;stroke-width:33.9085"
				aria-label="x" />
			<path
				id="lpe_path-effect7"
				style="font-weight:700;font-size:16.4052px;font-family:'Segoe UI';-inkscape-font-specification:'Segoe UI Semi-Bold';text-align:center;text-anchor:middle;display:inline;fill:#ffffff;fill-opacity:1;stroke-width:33.9085"
				class="powerclip"
				d="M -4.1482169,-4.868403 H 311.05039 V 280.99463 H -4.1482169 Z M 158.76304,122.11344 h -20.93577 l -18.87518,31.83984 h -0.2473 q -1.56607,-3.03607 -3.21455,-5.91645 L 100.90113,122.11344 H 78.64655 l 27.20004,40.63666 -28.68368,39.0797 h 22.08974 l 15.08365,-24.67782 q 3.13213,-5.06015 3.46183,-5.76075 h 0.3297 q 1.89576,3.50316 3.29698,5.76075 l 14.83638,24.67782 h 22.17216 l -27.77701,-39.39109 z" />
		</clipPath>
	</defs>
	<style
		id="style1">
		path { fill: white; }
		@media (prefers-color-scheme: light) {
		path { fill: black; }
		}
		path#blazor-logo { fill: #702af7; }
	</style>
	<path
		d="m 13.022461,30 v -9.980469 q 0,-2.614746 -1.999512,-2.614746 -0.974121,0 -1.4868162,0.751953 -0.5126953,0.734864 -0.5126953,1.896973 V 30 H 1.7431641 V 4.0917969 H 9.0234375 V 14.875488 h 0.068359 q 0.9399411,-1.350097 2.2729491,-2.067871 1.350098,-0.734863 2.888184,-0.734863 2.836914,0 4.32373,1.828613 1.486817,1.811524 1.486817,5.349121 V 30 Z M 35.666504,29.760742 Q 35.170898,30 34.042969,30.205078 q -1.12793,0.222168 -2.717285,0.222168 -3.041993,0 -4.768067,-1.674805 -1.708984,-1.674804 -1.708984,-4.768066 V 17.541504 H 22.097168 V 12.5 h 2.751465 V 9.0649414 L 32.026367,7.0825195 V 12.5 h 3.640137 v 5.041504 h -3.640137 v 5.246582 q 0,2.307129 1.828613,2.307129 0.854493,0 1.811524,-0.375977 z M 60.634766,30 V 19.916992 q 0,-1.264648 -0.461426,-1.879883 -0.444336,-0.632324 -1.469727,-0.632324 -1.008301,0 -1.572265,0.769043 -0.563965,0.751953 -0.563965,2.102051 V 30 h -7.280274 v -9.912109 q 0,-2.683106 -1.828613,-2.683106 -1.11084,0 -1.674805,0.786133 -0.563964,0.769043 -0.563964,2.22168 V 30 H 37.939453 V 12.5 h 7.280274 v 2.768555 h 0.06836 q 0.410156,-0.734864 1.298828,-1.486817 0.905762,-0.769043 2.033691,-1.230468 1.12793,-0.478516 2.443848,-0.478516 1.862793,0 3.127442,0.734863 1.281738,0.734863 2.13623,2.324219 0.922852,-1.469727 2.460937,-2.255859 1.538086,-0.803223 3.417969,-0.803223 2.751465,0 4.221192,1.794434 1.469726,1.794433 1.469726,5.178222 V 30 Z"
		aria-label="htm"
		id="path1" />
	<path
		d="m 126.2085,20.942383 q 0,4.426269 -2.68311,6.955566 -2.66601,2.529297 -7.46826,2.529297 -4.76807,0 -7.43408,-2.460937 -2.64893,-2.478028 -2.64893,-6.818848 0,-2.785645 1.24756,-4.836426 1.24756,-2.050781 3.55469,-3.144531 2.30713,-1.09375 5.31494,-1.09375 3.11035,0 5.3833,1.145019 2.29004,1.14502 3.50342,3.178711 1.23047,2.033692 1.23047,4.545899 z m -7.38282,0.03418 q 0,-3.571777 -2.73437,-3.571777 -2.73438,0 -2.73438,3.742676 0,3.947754 2.76856,3.947754 2.70019,0 2.70019,-4.118653 z m 23.25928,-2.238769 q -0.41016,-0.187988 -1.11084,-0.341797 -0.70068,-0.153809 -1.16211,-0.153809 -3.60596,0 -3.60596,4.169922 V 30 h -7.28027 V 12.5 h 7.28027 v 3.076172 h 0.0684 q 0.66651,-1.657715 1.89698,-2.512207 1.23047,-0.871582 2.87109,-0.871582 0.59814,0 1.04248,0.205078 z"
		aria-label="or"
		id="path2" />
	<path
		transform="matrix(0.1,0,0,0.1,72,4)"
		d="m 303.935,88.479 c -6.598,41.362 -27.653,79.041 -59.42,106.335 -31.767,27.294 -72.185,42.433 -114.064,42.723 -8.483,0.326 -16.977,-0.19 -25.358,-1.539 -36.118487,-6.13741 -63.046845,-36.664 -64.63,-73.266 0.169345,-19.81144 8.121378,-38.76199 22.14,-52.762 29.166633,-29.127376 76.30977,-29.460408 105.885,-0.748 14.21517,13.80013 24.46568,29.66737 23.66525,59.16175 -0.47395,18.0809 -30.60079,37.39317 -35.94696,30.60308 l -21.4873,0.42065 c 9.42596,15.67372 15.60307,15.87769 26.57421,15.35762 20.02411,-1.45526 49.73787,-28.34334 48.7738,-48.3971 0.0936,-8.27469 -0.83373,-16.52934 -2.761,-24.577 C 202.363,119.057 189.18,98.957 170.298,85.368 131.19182,57.223602 77.148268,63.143381 45.062,99.086 c -15.4934,17.3557 -24.014167,39.83207 -23.92,63.097 0.297293,24.66924 10.144647,48.26303 27.473,65.824 17.326835,17.56034 40.786376,27.72012 65.448,28.344 0,0 6.98,0.635 14.849,0.454 38.25133,-0.24208 75.63888,-11.39739 107.769,-32.155 0.457,-0.318 0.914,0.317 0.61,0.78 -31.66134,34.10808 -76.73636,52.54266 -123.225,50.396 C 83.723945,276.37698 54.475178,264.50168 33.105,242.955 11.732917,221.40739 0.09497613,192.06164 0.89,161.723 0.90465337,125.43048 18.035698,91.270681 47.113,69.553 66.385324,55.360119 89.675605,47.671177 113.61,47.6 h 35.772 c 28.25376,-0.0211 55.19732,-11.91811 74.247,-32.784 0.19911,-0.220697 0.46372,-0.371754 0.755,-0.431 0.59655,-0.129176 1.20883,0.137891 1.52,0.663 0.153,0.257 0.222,0.555 0.197,0.854 -1.51626,16.078697 -6.86879,31.558774 -15.608,45.14 -0.26477,0.48189 -0.21965,1.074731 0.115,1.511 0.33279,0.435523 0.89085,0.634214 1.424,0.507 33.48742,-7.564906 61.3946,-30.578926 75.198,-62.013 0.173,-0.277 0.411,-0.507 0.695,-0.67 0.58004,-0.32720395 1.28896,-0.32720395 1.869,0 0.284,0.162 0.523,0.392 0.694,0.67 14.0198,26.857635 18.74839,57.602774 13.447,87.432 z"
		fill="#702af7"
		id="blazor-logo"
		clip-path="url(#clipPath7)"/>
</svg>
