<?xml version="1.0" encoding="UTF-8" standalone="no"?>
<svg
   viewBox="0 0 145 35"
   version="1.1"
   xmlns="http://www.w3.org/2000/svg"
   xmlns:svg="http://www.w3.org/2000/svg">
   <style>
      path { fill: white; }
      @media (prefers-color-scheme: light) {
         path { fill: black; }
      }
      path#blazor-logo { fill: #702af7; }
   </style>

  <path
     d="m 13.022461,30 v -9.980469 q 0,-2.614746 -1.999512,-2.614746 -0.974121,0 -1.4868162,0.751953 -0.5126953,0.734864 -0.5126953,1.896973 V 30 H 1.7431641 V 4.0917969 H 9.0234375 V 14.875488 h 0.068359 q 0.9399411,-1.350097 2.2729491,-2.067871 1.350098,-0.734863 2.888184,-0.734863 2.836914,0 4.32373,1.828613 1.486817,1.811524 1.486817,5.349121 V 30 Z M 35.666504,29.760742 Q 35.170898,30 34.042969,30.205078 q -1.12793,0.222168 -2.717285,0.222168 -3.041993,0 -4.768067,-1.674805 -1.708984,-1.674804 -1.708984,-4.768066 V 17.541504 H 22.097168 V 12.5 h 2.751465 V 9.0649414 L 32.026367,7.0825195 V 12.5 h 3.640137 v 5.041504 h -3.640137 v 5.246582 q 0,2.307129 1.828613,2.307129 0.854493,0 1.811524,-0.375977 z M 60.634766,30 V 19.916992 q 0,-1.264648 -0.461426,-1.879883 -0.444336,-0.632324 -1.469727,-0.632324 -1.008301,0 -1.572265,0.769043 -0.563965,0.751953 -0.563965,2.102051 V 30 h -7.280274 v -9.912109 q 0,-2.683106 -1.828613,-2.683106 -1.11084,0 -1.674805,0.786133 -0.563964,0.769043 -0.563964,2.22168 V 30 H 37.939453 V 12.5 h 7.280274 v 2.768555 h 0.06836 q 0.410156,-0.734864 1.298828,-1.486817 0.905762,-0.769043 2.033691,-1.230468 1.12793,-0.478516 2.443848,-0.478516 1.862793,0 3.127442,0.734863 1.281738,0.734863 2.13623,2.324219 0.922852,-1.469727 2.460937,-2.255859 1.538086,-0.803223 3.417969,-0.803223 2.751465,0 4.221192,1.794434 1.469726,1.794433 1.469726,5.178222 V 30 Z"
     aria-label="htm" />
  <path
     d="m 126.2085,20.942383 q 0,4.426269 -2.68311,6.955566 -2.66601,2.529297 -7.46826,2.529297 -4.76807,0 -7.43408,-2.460937 -2.64893,-2.478028 -2.64893,-6.818848 0,-2.785645 1.24756,-4.836426 1.24756,-2.050781 3.55469,-3.144531 2.30713,-1.09375 5.31494,-1.09375 3.11035,0 5.3833,1.145019 2.29004,1.14502 3.50342,3.178711 1.23047,2.033692 1.23047,4.545899 z m -7.38282,0.03418 q 0,-3.571777 -2.73437,-3.571777 -2.73438,0 -2.73438,3.742676 0,3.947754 2.76856,3.947754 2.70019,0 2.70019,-4.118653 z m 23.25928,-2.238769 q -0.41016,-0.187988 -1.11084,-0.341797 -0.70068,-0.153809 -1.16211,-0.153809 -3.60596,0 -3.60596,4.169922 V 30 h -7.28027 V 12.5 h 7.28027 v 3.076172 h 0.0684 q 0.66651,-1.657715 1.89698,-2.512207 1.23047,-0.871582 2.87109,-0.871582 0.59814,0 1.04248,0.205078 z"
     aria-label="or" />
  <path
     transform="scale(0.1) translate(720, 40)"
     d="m303.935 88.479c-6.598 41.362-27.653 79.041-59.42 106.335s-72.185 42.433-114.064 42.723c-8.483.326-16.977-.19-25.358-1.539a77.723 77.723 0 0 1 -64.63-73.266 75.479 75.479 0 0 1 22.14-52.762 75.46 75.46 0 0 1 105.885-.748 75.478 75.478 0 0 1 22.884 52.443c.317 12.51-5.102 23.483-16.239 23.8-11.899 0-17.477-8.491-17.477-19.934v-31.797a19.478 19.478 0 0 0 -19.323-19.494h-26.653a46.386 46.386 0 0 0 -39.119 20.961 46.399 46.399 0 0 0 31.587 71.268 46.392 46.392 0 0 0 41.8-14.911l.932-1.39.933 1.543a32.82 32.82 0 0 0 27.986 13.328 36.992 36.992 0 0 0 34.268-38.671 100.64 100.64 0 0 0 -2.761-24.577c-4.943-22.734-18.126-42.834-37.008-56.423a94.153 94.153 0 0 0 -125.236 13.718 94.175 94.175 0 0 0 -23.92 63.097 95.352 95.352 0 0 0 27.473 65.824 95.331 95.331 0 0 0 65.448 28.344s6.98.635 14.849.454a200.94 200.94 0 0 0 107.769-32.155c.457-.318.914.317.61.78a158.177 158.177 0 0 1 -123.225 50.396 111.185 111.185 0 0 1 -80.961-32.871 111.215 111.215 0 0 1 -32.215-81.232 115.099 115.099 0 0 1 46.223-92.17 112.704 112.704 0 0 1 66.497-21.953h35.772a100.637 100.637 0 0 0 74.247-32.784 1.39 1.39 0 0 1 .755-.431 1.418 1.418 0 0 1 1.52.663c.153.257.222.555.197.854a100.93 100.93 0 0 1 -15.608 45.14 1.386 1.386 0 0 0 .115 1.511 1.387 1.387 0 0 0 1.424.507 108.158 108.158 0 0 0 75.198-62.013c.173-.277.411-.507.695-.67a1.902 1.902 0 0 1 1.869 0c.284.162.523.392.694.67a137.098 137.098 0 0 1 13.447 87.432zm-189.964 44.858a27.823 27.823 0 0 0 -27.293 33.255 27.83 27.83 0 0 0 21.862 21.865 27.824 27.824 0 0 0 33.251-27.296v-25.977a2.007 2.007 0 0 0 -1.904-1.904z"
     fill="#702af7"
     id="blazor-logo" />
</svg>
