<?xml version="1.0" encoding="UTF-8" standalone="no"?>
<svg
   viewBox="0 0 80 33"
   version="1.1"
   xmlns="http://www.w3.org/2000/svg"
   xmlns:svg="http://www.w3.org/2000/svg">

   <style>
      path { fill: white; }
      @media (prefers-color-scheme: light) {
         path { fill: black; }
      }
      path#blazor-logo { fill: #702af7; }
   </style>

  <path
     d="M 4.0673828,17.548828 V 13.447266 L 21.003418,6.4916992 V 11.481934 L 8.9892578,15.515137 v 0.06836 l 12.0141602,4.033203 v 4.990235 z"
     aria-label="&lt;" />
  <path
     d="m 58.067383,24.265137 v -5.041504 l 11.96289,-3.981934 V 15.17334 L 58.067383,11.174316 V 6.1328125 l 16.936035,6.9726565 v 4.084472 z"
     aria-label="&gt;" />
  <!-- Blazor '@' symbol, adjust scale and position as needed -->
  <path
     transform="scale(0.1) translate(240, 25)"
     d="m303.935 88.479c-6.598 41.362-27.653 79.041-59.42 106.335s-72.185 42.433-114.064 42.723c-8.483.326-16.977-.19-25.358-1.539a77.723 77.723 0 0 1 -64.63-73.266 75.479 75.479 0 0 1 22.14-52.762 75.46 75.46 0 0 1 105.885-.748 75.478 75.478 0 0 1 22.884 52.443c.317 12.51-5.102 23.483-16.239 23.8-11.899 0-17.477-8.491-17.477-19.934v-31.797a19.478 19.478 0 0 0 -19.323-19.494h-26.653a46.386 46.386 0 0 0 -39.119 20.961 46.399 46.399 0 0 0 31.587 71.268 46.392 46.392 0 0 0 41.8-14.911l.932-1.39.933 1.543a32.82 32.82 0 0 0 27.986 13.328 36.992 36.992 0 0 0 34.268-38.671 100.64 100.64 0 0 0 -2.761-24.577c-4.943-22.734-18.126-42.834-37.008-56.423a94.153 94.153 0 0 0 -125.236 13.718 94.175 94.175 0 0 0 -23.92 63.097 95.352 95.352 0 0 0 27.473 65.824 95.331 95.331 0 0 0 65.448 28.344s6.98.635 14.849.454a200.94 200.94 0 0 0 107.769-32.155c.457-.318.914.317.61.78a158.177 158.177 0 0 1 -123.225 50.396 111.185 111.185 0 0 1 -80.961-32.871 111.215 111.215 0 0 1 -32.215-81.232 115.099 115.099 0 0 1 46.223-92.17 112.704 112.704 0 0 1 66.497-21.953h35.772a100.637 100.637 0 0 0 74.247-32.784 1.39 1.39 0 0 1 .755-.431 1.418 1.418 0 0 1 1.52.663c.153.257.222.555.197.854a100.93 100.93 0 0 1 -15.608 45.14 1.386 1.386 0 0 0 .115 1.511 1.387 1.387 0 0 0 1.424.507 108.158 108.158 0 0 0 75.198-62.013c.173-.277.411-.507.695-.67a1.902 1.902 0 0 1 1.869 0c.284.162.523.392.694.67a137.098 137.098 0 0 1 13.447 87.432zm-189.964 44.858a27.823 27.823 0 0 0 -27.293 33.255 27.83 27.83 0 0 0 21.862 21.865 27.824 27.824 0 0 0 33.251-27.296v-25.977a2.007 2.007 0 0 0 -1.904-1.904z"     
     id="blazor-logo" />
</svg>
