<?xml version="1.0" encoding="UTF-8" standalone="no"?>
<svg
   viewBox="0 0 80 80"
   version="1.1"
   id="svg2"
   sodipodi:docname="htmxor-icon-square-x.svg"
   width="80"
   height="80"
   inkscape:version="1.3.1 (91b66b0783, 2023-11-16)"
   inkscape:export-filename="htmxor-icon-square-x.png"
   inkscape:export-xdpi="96"
   inkscape:export-ydpi="96"
   xmlns:inkscape="http://www.inkscape.org/namespaces/inkscape"
   xmlns:sodipodi="http://sodipodi.sourceforge.net/DTD/sodipodi-0.dtd"
   xmlns="http://www.w3.org/2000/svg"
   xmlns:svg="http://www.w3.org/2000/svg">
  <defs
     id="defs2">
    <clipPath
       clipPathUnits="userSpaceOnUse"
       id="clipPath7">
      <path
         d="m 158.76304,122.11344 -28.1067,40.32527 27.77701,39.39109 h -22.17216 l -14.83638,-24.67782 q -1.40122,-2.25759 -3.29698,-5.76075 h -0.3297 q -0.3297,0.7006 -3.46183,5.76075 L 99.25265,201.8298 H 77.16291 l 28.68368,-39.0797 -27.20004,-40.63666 h 22.25458 l 14.58911,25.92339 q 1.64848,2.88038 3.21455,5.91645 h 0.2473 l 18.87518,-31.83984 z"
         id="path7"
         style="font-weight:600;font-size:16.4052px;font-family:'Segoe UI';-inkscape-font-specification:'Segoe UI Semi-Bold';text-align:center;text-anchor:middle;display:none;fill:#ffffff;fill-opacity:1;stroke-width:33.9085"
         aria-label="x" />
      <path
         id="lpe_path-effect7"
         style="font-weight:600;font-size:16.4052px;font-family:'Segoe UI';-inkscape-font-specification:'Segoe UI Semi-Bold';text-align:center;text-anchor:middle;display:inline;fill:#ffffff;fill-opacity:1;stroke-width:33.9085"
         class="powerclip"
         d="M -4.1482169,-4.868403 H 311.05039 V 280.99463 H -4.1482169 Z M 158.76304,122.11344 h -20.93577 l -18.87518,31.83984 h -0.2473 q -1.56607,-3.03607 -3.21455,-5.91645 L 100.90113,122.11344 H 78.64655 l 27.20004,40.63666 -28.68368,39.0797 h 22.08974 l 15.08365,-24.67782 q 3.13213,-5.06015 3.46183,-5.76075 h 0.3297 q 1.89576,3.50316 3.29698,5.76075 l 14.83638,24.67782 h 22.17216 l -27.77701,-39.39109 z" />
    </clipPath>
    <inkscape:path-effect
       effect="powerclip"
       id="path-effect7"
       is_visible="true"
       lpeversion="1"
       inverse="true"
       flatten="false"
       hide_clip="false"
       message="Use fill-rule evenodd on &lt;b&gt;fill and stroke&lt;/b&gt; dialog if no flatten result after convert clip to paths." />
  </defs>
  <sodipodi:namedview
     id="namedview2"
     pagecolor="#ffffff"
     bordercolor="#000000"
     borderopacity="0.25"
     inkscape:showpageshadow="2"
     inkscape:pageopacity="0.0"
     inkscape:pagecheckerboard="0"
     inkscape:deskcolor="#d1d1d1"
     inkscape:zoom="7.0799067"
     inkscape:cx="-9.1102895"
     inkscape:cy="27.048379"
     inkscape:window-width="2400"
     inkscape:window-height="1566"
     inkscape:window-x="-11"
     inkscape:window-y="-11"
     inkscape:window-maximized="1"
     inkscape:current-layer="svg2"
     inkscape:export-bgcolor="#ffffff00" />
  <style
     id="style1">
      path { fill: black; }
      @media (prefers-color-scheme: dark) {
         path { fill: white; }
      }
      path#blazor-logo { fill: #702af7; }
   </style>
  <!-- Blazor '@' symbol, adjust scale and position as needed -->
  <g
     id="g2"
     transform="translate(0.4645996,23.693702)">
    <path
       d="M 4.0673828,17.548828 V 13.447266 L 21.003418,6.4916992 V 11.481934 L 8.9892578,15.515137 v 0.06836 L 21.003418,19.6167 v 4.990235 z"
       aria-label="&lt;"
       id="path1" />
    <path
       d="m 58.067383,24.265137 v -5.041504 l 11.96289,-3.981934 V 15.17334 L 58.067383,11.174316 V 6.1328125 l 16.936035,6.9726565 v 4.084472 z"
       aria-label="&gt;"
       id="path2" />
    <path
       d="m 54.3935,11.3479 c -0.6598,4.1362 -2.7653,7.9041 -5.942,10.6335 -3.1767,2.7294 -7.2185,4.2433 -11.4064,4.2723 -0.8483,0.0326 -1.6977,-0.019 -2.5358,-0.1539 a 7.7723,7.7723 0 0 1 -6.463,-7.3266 7.5479,7.5479 0 0 1 2.214,-5.2762 7.546,7.546 0 0 1 10.5885,-0.0748 7.5478,7.5478 0 0 1 2.2884,5.2443 c 0.0317,1.251 -0.5102,2.3483 -1.6239,2.38 -1.1899,0 -1.7477,-0.8491 -1.7477,-1.9934 V 15.8734 A 1.9478,1.9478 0 0 0 37.8333,13.924 H 35.168 a 4.6386,4.6386 0 0 0 -3.9119,2.0961 4.6399,4.6399 0 0 0 3.1587,7.1268 4.6392,4.6392 0 0 0 4.18,-1.4911 l 0.0932,-0.139 0.0933,0.1543 a 3.282,3.282 0 0 0 2.7986,1.3328 3.6992,3.6992 0 0 0 3.4268,-3.8671 10.064,10.064 0 0 0 -0.2761,-2.4577 C 44.2363,14.4057 42.918,12.3957 41.0298,11.0368 a 9.4153,9.4153 0 0 0 -12.5236,1.3718 9.4175,9.4175 0 0 0 -2.392,6.3097 9.5352,9.5352 0 0 0 2.7473,6.5824 9.5331,9.5331 0 0 0 6.5448,2.8344 c 0,0 0.698,0.0635 1.4849,0.0454 A 20.094,20.094 0 0 0 47.6681,24.965 c 0.0457,-0.0318 0.0914,0.0317 0.061,0.078 A 15.8177,15.8177 0 0 1 35.4066,30.0826 11.1185,11.1185 0 0 1 27.3105,26.7955 11.1215,11.1215 0 0 1 24.089,18.6723 11.5099,11.5099 0 0 1 28.7113,9.4553 11.2704,11.2704 0 0 1 35.361,7.26 h 3.5772 a 10.0637,10.0637 0 0 0 7.4247,-3.2784 0.139,0.139 0 0 1 0.0755,-0.0431 0.1418,0.1418 0 0 1 0.152,0.0663 c 0.0153,0.0257 0.0222,0.0555 0.0197,0.0854 a 10.093,10.093 0 0 1 -1.5608,4.514 0.1386,0.1386 0 0 0 0.0115,0.1511 0.1387,0.1387 0 0 0 0.1424,0.0507 10.8158,10.8158 0 0 0 7.5198,-6.2013 C 52.7403,2.577 52.7641,2.554 52.7925,2.5377 a 0.1902,0.1902 0 0 1 0.1869,0 c 0.0284,0.0162 0.0523,0.0392 0.0694,0.067 a 13.7098,13.7098 0 0 1 1.3447,8.7432 z m -18.9964,4.4858 a 2.7823,2.7823 0 0 0 -2.7293,3.3255 2.783,2.783 0 0 0 2.1862,2.1865 2.7824,2.7824 0 0 0 3.3251,-2.7296 V 16.0184 A 0.2007,0.2007 0 0 0 37.9887,15.828 Z"
       id="blazor-logo"
       style="display:none;stroke-width:0.1" />
    <path
       transform="matrix(0.1,0,0,0.1,23.959639,2.4731442)"
       d="m 303.935,88.479 c -6.598,41.362 -27.653,79.041 -59.42,106.335 -31.767,27.294 -72.185,42.433 -114.064,42.723 -8.483,0.326 -16.977,-0.19 -25.358,-1.539 -36.118487,-6.13741 -63.046845,-36.664 -64.63,-73.266 0.169345,-19.81144 8.121378,-38.76199 22.14,-52.762 29.166633,-29.127376 76.30977,-29.460408 105.885,-0.748 14.21517,13.80013 24.46568,29.66737 23.66525,59.16175 -0.47395,18.0809 -30.60079,37.39317 -35.94696,30.60308 l -21.4873,0.42065 c 9.42596,15.67372 15.60307,15.87769 26.57421,15.35762 20.02411,-1.45526 49.73787,-28.34334 48.7738,-48.3971 0.0936,-8.27469 -0.83373,-16.52934 -2.761,-24.577 C 202.363,119.057 189.18,98.957 170.298,85.368 131.19182,57.223602 77.148268,63.143381 45.062,99.086 c -15.4934,17.3557 -24.014167,39.83207 -23.92,63.097 0.297293,24.66924 10.144647,48.26303 27.473,65.824 17.326835,17.56034 40.786376,27.72012 65.448,28.344 0,0 6.98,0.635 14.849,0.454 38.25133,-0.24208 75.63888,-11.39739 107.769,-32.155 0.457,-0.318 0.914,0.317 0.61,0.78 -31.66134,34.10808 -76.73636,52.54266 -123.225,50.396 C 83.723945,276.37698 54.475178,264.50168 33.105,242.955 11.732917,221.40739 0.09497613,192.06164 0.89,161.723 0.90465337,125.43048 18.035698,91.270681 47.113,69.553 66.385324,55.360119 89.675605,47.671177 113.61,47.6 h 35.772 c 28.25376,-0.0211 55.19732,-11.91811 74.247,-32.784 0.19911,-0.220697 0.46372,-0.371754 0.755,-0.431 0.59655,-0.129176 1.20883,0.137891 1.52,0.663 0.153,0.257 0.222,0.555 0.197,0.854 -1.51626,16.078697 -6.86879,31.558774 -15.608,45.14 -0.26477,0.48189 -0.21965,1.074731 0.115,1.511 0.33279,0.435523 0.89085,0.634214 1.424,0.507 33.48742,-7.564906 61.3946,-30.578926 75.198,-62.013 0.173,-0.277 0.411,-0.507 0.695,-0.67 0.58004,-0.32720395 1.28896,-0.32720395 1.869,0 0.284,0.162 0.523,0.392 0.694,0.67 14.0198,26.857635 18.74839,57.602774 13.447,87.432 z"
       fill="#702af7"
       id="blazor-logo-2"
       sodipodi:nodetypes="csccccccccccccscccccccccccccccccccccccc"
       clip-path="url(#clipPath7)"
       inkscape:path-effect="#path-effect7"
       inkscape:original-d="m 303.935,88.479 c -6.598,41.362 -27.653,79.041 -59.42,106.335 -31.767,27.294 -72.185,42.433 -114.064,42.723 -8.483,0.326 -16.977,-0.19 -25.358,-1.539 -36.118487,-6.13741 -63.046845,-36.664 -64.63,-73.266 0.169345,-19.81144 8.121378,-38.76199 22.14,-52.762 29.166633,-29.127376 76.30977,-29.460408 105.885,-0.748 14.21517,13.80013 24.46568,29.66737 23.66525,59.16175 -0.47395,18.0809 -30.60079,37.39317 -35.94696,30.60308 l -21.4873,0.42065 c 9.42596,15.67372 15.60307,15.87769 26.57421,15.35762 20.02411,-1.45526 49.73787,-28.34334 48.7738,-48.3971 0.0936,-8.27469 -0.83373,-16.52934 -2.761,-24.577 C 202.363,119.057 189.18,98.957 170.298,85.368 131.19182,57.223602 77.148268,63.143381 45.062,99.086 c -15.4934,17.3557 -24.014167,39.83207 -23.92,63.097 0.297293,24.66924 10.144647,48.26303 27.473,65.824 17.326835,17.56034 40.786376,27.72012 65.448,28.344 0,0 6.98,0.635 14.849,0.454 38.25133,-0.24208 75.63888,-11.39739 107.769,-32.155 0.457,-0.318 0.914,0.317 0.61,0.78 -31.66134,34.10808 -76.73636,52.54266 -123.225,50.396 C 83.723945,276.37698 54.475178,264.50168 33.105,242.955 11.732917,221.40739 0.09497613,192.06164 0.89,161.723 0.90465337,125.43048 18.035698,91.270681 47.113,69.553 66.385324,55.360119 89.675605,47.671177 113.61,47.6 h 35.772 c 28.25376,-0.0211 55.19732,-11.91811 74.247,-32.784 0.19911,-0.220697 0.46372,-0.371754 0.755,-0.431 0.59655,-0.129176 1.20883,0.137891 1.52,0.663 0.153,0.257 0.222,0.555 0.197,0.854 -1.51626,16.078697 -6.86879,31.558774 -15.608,45.14 -0.26477,0.48189 -0.21965,1.074731 0.115,1.511 0.33279,0.435523 0.89085,0.634214 1.424,0.507 33.48742,-7.564906 61.3946,-30.578926 75.198,-62.013 0.173,-0.277 0.411,-0.507 0.695,-0.67 0.58004,-0.32720395 1.28896,-0.32720395 1.869,0 0.284,0.162 0.523,0.392 0.694,0.67 14.0198,26.857635 18.74839,57.602774 13.447,87.432 z"
       style="fill:#702af7" />
  </g>
</svg>
