<?xml version="1.0" encoding="UTF-8" standalone="no"?>
<svg
   viewBox="0 0 80 80"
   version="1.1"
   id="svg2"
   sodipodi:docname="htmxor-icon-square.svg"
   width="80"
   height="80"
   inkscape:version="1.3.1 (91b66b0783, 2023-11-16)"
   xmlns:inkscape="http://www.inkscape.org/namespaces/inkscape"
   xmlns:sodipodi="http://sodipodi.sourceforge.net/DTD/sodipodi-0.dtd"
   xmlns="http://www.w3.org/2000/svg"
   xmlns:svg="http://www.w3.org/2000/svg">
  <defs
     id="defs2" />
  <sodipodi:namedview
     id="namedview2"
     pagecolor="#ffffff"
     bordercolor="#000000"
     borderopacity="0.25"
     inkscape:showpageshadow="2"
     inkscape:pageopacity="0.0"
     inkscape:pagecheckerboard="0"
     inkscape:deskcolor="#d1d1d1"
     inkscape:zoom="7.0799067"
     inkscape:cx="-9.180912"
     inkscape:cy="24.929707"
     inkscape:window-width="2400"
     inkscape:window-height="1566"
     inkscape:window-x="-11"
     inkscape:window-y="-11"
     inkscape:window-maximized="1"
     inkscape:current-layer="svg2" />
  <style
     id="style1">
      path { fill: black; }
      @media (prefers-color-scheme: dark) {
         path { fill: white; }
      }
      path#blazor-logo { fill: #702af7; }
   </style>
  <!-- Blazor '@' symbol, adjust scale and position as needed -->
  <g
     id="g2"
     transform="translate(0.4645996,23.693702)">
    <path
       d="M 4.0673828,17.548828 V 13.447266 L 21.003418,6.4916992 V 11.481934 L 8.9892578,15.515137 v 0.06836 L 21.003418,19.6167 v 4.990235 z"
       aria-label="&lt;"
       id="path1" />
    <path
       d="m 58.067383,24.265137 v -5.041504 l 11.96289,-3.981934 V 15.17334 L 58.067383,11.174316 V 6.1328125 l 16.936035,6.9726565 v 4.084472 z"
       aria-label="&gt;"
       id="path2" />
    <path
       d="m 54.3935,11.3479 c -0.6598,4.1362 -2.7653,7.9041 -5.942,10.6335 -3.1767,2.7294 -7.2185,4.2433 -11.4064,4.2723 -0.8483,0.0326 -1.6977,-0.019 -2.5358,-0.1539 a 7.7723,7.7723 0 0 1 -6.463,-7.3266 7.5479,7.5479 0 0 1 2.214,-5.2762 7.546,7.546 0 0 1 10.5885,-0.0748 7.5478,7.5478 0 0 1 2.2884,5.2443 c 0.0317,1.251 -0.5102,2.3483 -1.6239,2.38 -1.1899,0 -1.7477,-0.8491 -1.7477,-1.9934 V 15.8734 A 1.9478,1.9478 0 0 0 37.8333,13.924 H 35.168 a 4.6386,4.6386 0 0 0 -3.9119,2.0961 4.6399,4.6399 0 0 0 3.1587,7.1268 4.6392,4.6392 0 0 0 4.18,-1.4911 l 0.0932,-0.139 0.0933,0.1543 a 3.282,3.282 0 0 0 2.7986,1.3328 3.6992,3.6992 0 0 0 3.4268,-3.8671 10.064,10.064 0 0 0 -0.2761,-2.4577 C 44.2363,14.4057 42.918,12.3957 41.0298,11.0368 a 9.4153,9.4153 0 0 0 -12.5236,1.3718 9.4175,9.4175 0 0 0 -2.392,6.3097 9.5352,9.5352 0 0 0 2.7473,6.5824 9.5331,9.5331 0 0 0 6.5448,2.8344 c 0,0 0.698,0.0635 1.4849,0.0454 A 20.094,20.094 0 0 0 47.6681,24.965 c 0.0457,-0.0318 0.0914,0.0317 0.061,0.078 A 15.8177,15.8177 0 0 1 35.4066,30.0826 11.1185,11.1185 0 0 1 27.3105,26.7955 11.1215,11.1215 0 0 1 24.089,18.6723 11.5099,11.5099 0 0 1 28.7113,9.4553 11.2704,11.2704 0 0 1 35.361,7.26 h 3.5772 a 10.0637,10.0637 0 0 0 7.4247,-3.2784 0.139,0.139 0 0 1 0.0755,-0.0431 0.1418,0.1418 0 0 1 0.152,0.0663 c 0.0153,0.0257 0.0222,0.0555 0.0197,0.0854 a 10.093,10.093 0 0 1 -1.5608,4.514 0.1386,0.1386 0 0 0 0.0115,0.1511 0.1387,0.1387 0 0 0 0.1424,0.0507 10.8158,10.8158 0 0 0 7.5198,-6.2013 C 52.7403,2.577 52.7641,2.554 52.7925,2.5377 a 0.1902,0.1902 0 0 1 0.1869,0 c 0.0284,0.0162 0.0523,0.0392 0.0694,0.067 a 13.7098,13.7098 0 0 1 1.3447,8.7432 z m -18.9964,4.4858 a 2.7823,2.7823 0 0 0 -2.7293,3.3255 2.783,2.783 0 0 0 2.1862,2.1865 2.7824,2.7824 0 0 0 3.3251,-2.7296 V 16.0184 A 0.2007,0.2007 0 0 0 37.9887,15.828 Z"
       id="blazor-logo"
       style="stroke-width:0.1" />
  </g>
</svg>
